<svg width="116" height="31" viewBox="0 0 116 31" fill="none" xmlns="http://www.w3.org/2000/svg">
<circle cx="15.4667" cy="15.4667" r="15.4667" fill="#4D77CF"/>
<path fill-rule="evenodd" clip-rule="evenodd" d="M18.7026 11.2841C18.3323 11.21 17.8323 11.1547 17.5178 11.1547C16.6663 11.1547 16.611 11.525 16.611 12.1173V13.1718H18.7396L18.554 15.3561H16.611V22H13.9459V15.3561H12.5761V13.1718H13.9459V11.8207C13.9459 9.97003 14.8157 8.93341 16.9995 8.93341C17.7583 8.93341 18.3136 9.04448 19.0353 9.19257L18.7026 11.2841Z" fill="white"/>
<circle cx="100.533" cy="15.4667" r="15.4667" fill="#0077B5"/>
<path fill-rule="evenodd" clip-rule="evenodd" d="M96.9525 8.55361C96.9525 9.42444 96.2894 10.1292 95.2525 10.1292C94.256 10.1292 93.5929 9.42444 93.6134 8.55361C93.5929 7.64046 94.256 6.95624 95.2724 6.95624C96.2894 6.95624 96.9326 7.64046 96.9525 8.55361ZM93.6968 21.5173V11.3739H96.8492V21.5166H93.6968V21.5173Z" fill="white"/>
<path fill-rule="evenodd" clip-rule="evenodd" d="M99.376 14.611C99.376 13.3458 99.3343 12.2672 99.2926 11.3752H102.031L102.176 12.7648H102.239C102.653 12.1217 103.69 11.1476 105.37 11.1476C107.444 11.1476 109 12.5167 109 15.5024V21.5186H105.848V15.8974C105.848 14.5899 105.392 13.6985 104.251 13.6985C103.379 13.6985 102.861 14.3 102.654 14.8803C102.571 15.0881 102.53 15.378 102.53 15.6691V21.5186H99.3772V14.611H99.376Z" fill="white"/>
<circle cx="58.0009" cy="15.4667" r="15.4667" fill="#1DA1F2"/>
<path fill-rule="evenodd" clip-rule="evenodd" d="M66.2748 10.1421C65.6664 10.4124 65.0116 10.5944 64.3248 10.6766C65.0259 10.2563 65.5643 9.59098 65.8175 8.79828C65.1622 9.18774 64.4346 9.46963 63.6617 9.62243C63.0422 8.96267 62.1591 8.55005 61.1832 8.55005C59.3082 8.55005 57.7879 10.0704 57.7879 11.9454C57.7879 12.2113 57.8182 12.4705 57.8762 12.7193C55.054 12.5781 52.5523 11.226 50.8776 9.17174C50.5852 9.67318 50.418 10.2563 50.418 10.8785C50.418 12.0562 51.0166 13.0955 51.9284 13.7045C51.3713 13.6869 50.8483 13.5341 50.3899 13.2798V13.3222C50.3899 14.9678 51.561 16.3397 53.1133 16.6525C52.8287 16.7297 52.5286 16.7716 52.2191 16.7716C52.0001 16.7716 51.7872 16.7501 51.5798 16.7104C52.0117 18.0591 53.2661 19.0411 54.7517 19.0686C53.59 19.9788 52.1259 20.5222 50.535 20.5222C50.2603 20.5222 49.99 20.5062 49.7246 20.4742C51.2273 21.4374 53.0118 22 54.9293 22C61.1744 22 64.5896 16.8262 64.5896 12.3398C64.5896 12.1925 64.5868 12.0458 64.5796 11.9007C65.2438 11.4208 65.8197 10.8228 66.2748 10.1421Z" fill="white"/>
</svg>
